<svg width="14" height="14" viewBox="0 0 14 14" fill="none" xmlns="http://www.w3.org/2000/svg">
<path d="M12.8334 8.66833V8.63916C12.8263 8.52651 12.8067 8.41499 12.775 8.30666L11.8184 2.63083C11.75 2.2178 11.5359 1.84296 11.2148 1.57432C10.8937 1.30568 10.487 1.16105 10.0684 1.16666H3.90252C3.48892 1.168 3.08916 1.31579 2.77415 1.58382C2.45914 1.85184 2.24924 2.22278 2.18169 2.63083L1.23669 8.29499C1.20498 8.40332 1.18541 8.51484 1.17835 8.62749V8.65666C1.16669 8.69749 1.16669 8.74999 1.16669 8.74999V11.0833C1.16669 11.5475 1.35106 11.9926 1.67925 12.3208C2.00744 12.649 2.45256 12.8333 2.91669 12.8333H11.0834C11.5475 12.8333 11.9926 12.649 12.3208 12.3208C12.649 11.9926 12.8334 11.5475 12.8334 11.0833V8.74999C12.8334 8.74999 12.8334 8.69749 12.8334 8.66833ZM3.33085 2.81749C3.35447 2.68053 3.4262 2.5565 3.53315 2.46774C3.64009 2.37897 3.77522 2.33131 3.91419 2.33333H10.0975C10.2365 2.33131 10.3716 2.37897 10.4786 2.46774C10.5855 2.5565 10.6572 2.68053 10.6809 2.81749L11.3809 7.02916C11.2829 7.00978 11.1832 7.00001 11.0834 6.99999H2.91669C2.82071 7.00075 2.72501 7.01052 2.63085 7.02916L3.33085 2.81749ZM11.6667 11.0833C11.6667 11.238 11.6052 11.3864 11.4958 11.4958C11.3864 11.6052 11.2381 11.6667 11.0834 11.6667H2.91669C2.76198 11.6667 2.6136 11.6052 2.50421 11.4958C2.39481 11.3864 2.33335 11.238 2.33335 11.0833V8.79666L2.38002 8.52833C2.42378 8.4218 2.4981 8.33061 2.5936 8.26625C2.6891 8.20189 2.80152 8.16724 2.91669 8.16666H11.0834C11.1985 8.16724 11.3109 8.20189 11.4064 8.26625C11.5019 8.33061 11.5763 8.4218 11.62 8.52833L11.6667 8.79666V11.0833ZM9.91669 9.33333C9.80131 9.33333 9.68853 9.36754 9.5926 9.43164C9.49668 9.49573 9.42191 9.58684 9.37776 9.69343C9.33361 9.80002 9.32205 9.91731 9.34456 10.0305C9.36707 10.1436 9.42263 10.2476 9.50421 10.3291C9.58579 10.4107 9.68973 10.4663 9.80288 10.4888C9.91604 10.5113 10.0333 10.4997 10.1399 10.4556C10.2465 10.4114 10.3376 10.3367 10.4017 10.2407C10.4658 10.1448 10.5 10.032 10.5 9.91666C10.5 9.76195 10.4386 9.61358 10.3292 9.50418C10.2198 9.39479 10.0714 9.33333 9.91669 9.33333Z" fill="currentColor"/>
</svg>
