<svg width="512" height="512" viewBox="0 0 512 512" fill="none" xmlns="http://www.w3.org/2000/svg">
<rect width="512" height="512" fill="url(#paint0_linear_903_585)"/>
<path d="M239.602 397.216C239.602 402.297 238.139 406.609 235.214 410.15L230.364 413.845C228.67 414.769 226.745 415.231 224.59 415.231C218.123 415.231 212.965 411.844 209.116 405.069L78.1631 172.264V398.833C78.1631 403.914 76.6234 407.994 73.5439 411.074C70.6185 413.691 66.7692 415 61.9961 415C57.6849 415 53.9126 413.691 50.6792 411.074C47.4458 408.302 45.8291 404.222 45.8291 398.833V109.444C45.8291 103.747 47.3688 99.3587 50.4482 96.2793C53.2197 93.1999 56.7611 91.6602 61.0723 91.6602C67.2311 91.6602 72.3122 95.0475 76.3154 101.822L207.268 334.396V107.827C207.268 103.516 208.885 99.5127 212.118 95.8174C215.352 93.0459 219.124 91.6602 223.435 91.6602C227.438 91.6602 231.211 92.9689 234.752 95.5864C237.985 98.3579 239.602 102.438 239.602 107.827V397.216ZM336.835 285.664H433.837V253.33C433.837 244.246 430.757 236.624 424.599 230.465C418.594 224.153 410.895 220.996 401.503 220.996H369.169C360.085 220.996 352.386 224.076 346.073 230.234C342.994 233.314 340.684 236.855 339.145 240.858C337.605 244.708 336.835 248.865 336.835 253.33V285.664ZM336.835 317.998V350.332C336.835 359.416 339.914 367.115 346.073 373.428C349.307 376.199 352.771 378.509 356.466 380.356C361.085 381.896 365.32 382.666 369.169 382.666H450.004C454.469 382.666 458.241 384.36 461.321 387.747C464.554 390.98 466.171 394.676 466.171 398.833C466.171 402.528 464.785 406.147 462.014 409.688C459.396 413.229 455.393 415 450.004 415H369.169C351.616 415 336.45 408.764 323.67 396.292C310.891 383.667 304.501 368.347 304.501 350.332V253.33C304.501 235.931 310.737 220.842 323.208 208.062C335.68 195.129 351 188.662 369.169 188.662H401.503C419.056 188.662 434.222 194.975 447.001 207.601C459.781 220.072 466.171 235.315 466.171 253.33V301.831C466.171 312.609 460.782 317.998 450.004 317.998H336.835Z" fill="white"/>
<rect x="306" y="124" width="32" height="161" rx="16" transform="rotate(-90 306 124)" fill="white"/>
<defs>
<linearGradient id="paint0_linear_903_585" x1="256" y1="0" x2="256" y2="512" gradientUnits="userSpaceOnUse">
<stop stop-color="#54487A"/>
<stop offset="1" stop-color="#493F6A"/>
</linearGradient>
</defs>
</svg>
