<svg width="16" height="16" viewBox="0 0 16 16" fill="none" xmlns="http://www.w3.org/2000/svg">
<path d="M0.874992 5.64497L7.62499 9.54497C7.73901 9.6108 7.86834 9.64545 7.99999 9.64545C8.13164 9.64545 8.26098 9.6108 8.37499 9.54497L15.125 5.64497C15.2383 5.57953 15.3326 5.48556 15.3984 5.37241C15.4642 5.25926 15.4992 5.13086 15.5 4.99997C15.5005 4.86782 15.4661 4.73787 15.4003 4.62328C15.3344 4.5087 15.2394 4.41355 15.125 4.34747L8.37499 0.454973C8.26098 0.389147 8.13164 0.354492 7.99999 0.354492C7.86834 0.354492 7.73901 0.389147 7.62499 0.454973L0.874992 4.34747C0.760539 4.41355 0.665578 4.5087 0.599726 4.62328C0.533874 4.73787 0.499468 4.86782 0.499992 4.99997C0.500782 5.13086 0.535812 5.25926 0.601598 5.37241C0.667385 5.48556 0.761639 5.57953 0.874992 5.64497V5.64497ZM7.99999 1.99997L13.25 4.99997L7.99999 7.99997L2.74999 4.99997L7.99999 1.99997ZM14.375 7.37747L7.99999 11L1.62499 7.34747C1.53939 7.29788 1.44483 7.26572 1.34674 7.25283C1.24866 7.23994 1.14899 7.24659 1.05349 7.27238C0.957985 7.29817 0.868526 7.34261 0.790265 7.40312C0.712005 7.46363 0.64649 7.53903 0.597492 7.62497C0.499713 7.79719 0.474013 8.00108 0.526001 8.19217C0.577989 8.38326 0.703444 8.54603 0.874992 8.64497L7.62499 12.545C7.73901 12.6108 7.86834 12.6455 7.99999 12.6455C8.13164 12.6455 8.26098 12.6108 8.37499 12.545L15.125 8.64497C15.2965 8.54603 15.422 8.38326 15.474 8.19217C15.526 8.00108 15.5003 7.79719 15.4025 7.62497C15.3535 7.53903 15.288 7.46363 15.2097 7.40312C15.1315 7.34261 15.042 7.29817 14.9465 7.27238C14.851 7.24659 14.7513 7.23994 14.6532 7.25283C14.5552 7.26572 14.4606 7.29788 14.375 7.34747V7.37747ZM14.375 10.3775L7.99999 14L1.62499 10.3475C1.53939 10.2979 1.44483 10.2657 1.34674 10.2528C1.24866 10.2399 1.14899 10.2466 1.05349 10.2724C0.957985 10.2982 0.868526 10.3426 0.790265 10.4031C0.712005 10.4636 0.64649 10.539 0.597492 10.625C0.499713 10.7972 0.474013 11.0011 0.526001 11.1922C0.577989 11.3833 0.703444 11.546 0.874992 11.645L7.62499 15.545C7.73901 15.6108 7.86834 15.6455 7.99999 15.6455C8.13164 15.6455 8.26098 15.6108 8.37499 15.545L15.125 11.645C15.2965 11.546 15.422 11.3833 15.474 11.1922C15.526 11.0011 15.5003 10.7972 15.4025 10.625C15.3535 10.539 15.288 10.4636 15.2097 10.4031C15.1315 10.3426 15.042 10.2982 14.9465 10.2724C14.851 10.2466 14.7513 10.2399 14.6532 10.2528C14.5552 10.2657 14.4606 10.2979 14.375 10.3475V10.3775Z" fill="#333333"/>
</svg>
