<svg width="16" height="16" viewBox="0 0 16 16" fill="none" xmlns="http://www.w3.org/2000/svg">
<path d="M13.25 0.5H2.75C2.15326 0.5 1.58097 0.737053 1.15901 1.15901C0.737053 1.58097 0.5 2.15326 0.5 2.75V13.25C0.5 13.8467 0.737053 14.419 1.15901 14.841C1.58097 15.2629 2.15326 15.5 2.75 15.5H13.25C13.8467 15.5 14.419 15.2629 14.841 14.841C15.2629 14.419 15.5 13.8467 15.5 13.25V2.75C15.5 2.15326 15.2629 1.58097 14.841 1.15901C14.419 0.737053 13.8467 0.5 13.25 0.5ZM6.5 2H9.5V4.3475L8.4125 3.5975C8.29004 3.51685 8.14663 3.47387 8 3.47387C7.85337 3.47387 7.70996 3.51685 7.5875 3.5975L6.5 4.3475V2ZM14 13.25C14 13.4489 13.921 13.6397 13.7803 13.7803C13.6397 13.921 13.4489 14 13.25 14H2.75C2.55109 14 2.36032 13.921 2.21967 13.7803C2.07902 13.6397 2 13.4489 2 13.25V2.75C2 2.55109 2.07902 2.36032 2.21967 2.21967C2.36032 2.07902 2.55109 2 2.75 2H5V5.75C5.00036 5.88568 5.03752 6.01872 5.10752 6.13494C5.17752 6.25117 5.27774 6.34623 5.3975 6.41C5.51478 6.47022 5.64586 6.49846 5.77753 6.49188C5.9092 6.48529 6.03681 6.44412 6.1475 6.3725L8 5.15L9.8375 6.3725C9.9503 6.44679 10.0811 6.48923 10.216 6.49536C10.3509 6.50149 10.485 6.47107 10.6041 6.40731C10.7231 6.34355 10.8228 6.24882 10.8925 6.13312C10.9621 6.01743 10.9993 5.88506 11 5.75V2H13.25C13.4489 2 13.6397 2.07902 13.7803 2.21967C13.921 2.36032 14 2.55109 14 2.75V13.25Z" fill="currentColor"/>
</svg>
