<svg width="14" height="14" viewBox="0 0 14 14" fill="none" xmlns="http://www.w3.org/2000/svg">
<path d="M11.0834 3.20833H7.42002L7.23335 2.62499C7.11234 2.28271 6.88787 1.98654 6.59105 1.7775C6.29422 1.56847 5.93973 1.45693 5.57669 1.45833H2.91669C2.45256 1.45833 2.00744 1.6427 1.67925 1.97089C1.35106 2.29908 1.16669 2.7442 1.16669 3.20833V10.7917C1.16669 11.2558 1.35106 11.7009 1.67925 12.0291C2.00744 12.3573 2.45256 12.5417 2.91669 12.5417H11.0834C11.5475 12.5417 11.9926 12.3573 12.3208 12.0291C12.649 11.7009 12.8334 11.2558 12.8334 10.7917V4.95833C12.8334 4.4942 12.649 4.04908 12.3208 3.72089C11.9926 3.3927 11.5475 3.20833 11.0834 3.20833ZM11.6667 10.7917C11.6667 10.9464 11.6052 11.0947 11.4958 11.2041C11.3864 11.3135 11.2381 11.375 11.0834 11.375H2.91669C2.76198 11.375 2.6136 11.3135 2.50421 11.2041C2.39481 11.0947 2.33335 10.9464 2.33335 10.7917V3.20833C2.33335 3.05362 2.39481 2.90524 2.50421 2.79585C2.6136 2.68645 2.76198 2.62499 2.91669 2.62499H5.57669C5.69898 2.62468 5.81828 2.6628 5.91772 2.73398C6.01716 2.80516 6.09172 2.9058 6.13085 3.02166L6.44585 3.97833C6.48499 4.09419 6.55954 4.19482 6.65899 4.266C6.75843 4.33718 6.87773 4.37531 7.00002 4.37499H11.0834C11.2381 4.37499 11.3864 4.43645 11.4958 4.54585C11.6052 4.65524 11.6667 4.80362 11.6667 4.95833V10.7917Z" fill="currentColor"/>
</svg>
