<svg width="14" height="14" viewBox="0 0 14 14" fill="none" xmlns="http://www.w3.org/2000/svg">
<path d="M11.1533 1.28918C11.0847 1.23162 11.0038 1.19063 10.9168 1.16939C10.8298 1.14815 10.7391 1.14722 10.6517 1.16668L5.985 2.33334C5.85557 2.36528 5.74099 2.44059 5.66033 2.54672C5.57966 2.65286 5.53779 2.78342 5.54167 2.91668V8.95418C5.26911 8.82105 4.96999 8.75126 4.66667 8.75001C4.26286 8.75001 3.86813 8.86975 3.53238 9.09409C3.19663 9.31844 2.93494 9.6373 2.78041 10.0104C2.62588 10.3834 2.58545 10.7939 2.66423 11.19C2.74301 11.586 2.93746 11.9498 3.22299 12.2354C3.50852 12.5209 3.87231 12.7153 4.26836 12.7941C4.6644 12.8729 5.07491 12.8325 5.44798 12.6779C5.82105 12.5234 6.13991 12.2617 6.36425 11.926C6.58859 11.5902 6.70833 11.1955 6.70833 10.7917V6.28834L10.9317 5.25001H10.9725L11.0833 5.16251L11.1708 5.10418C11.1992 5.0778 11.2246 5.04847 11.2467 5.01668C11.2694 4.98986 11.289 4.9605 11.305 4.92918C11.3227 4.89647 11.3345 4.86094 11.34 4.82418C11.3461 4.78748 11.3461 4.75004 11.34 4.71334C11.3426 4.6979 11.3426 4.68212 11.34 4.66668V1.75001C11.3448 1.66419 11.3305 1.57838 11.2982 1.49871C11.266 1.41904 11.2165 1.34749 11.1533 1.28918V1.28918ZM4.66667 11.6667C4.49361 11.6667 4.32444 11.6154 4.18054 11.5192C4.03665 11.4231 3.9245 11.2864 3.85827 11.1265C3.79205 10.9666 3.77472 10.7907 3.80848 10.621C3.84224 10.4512 3.92558 10.2953 4.04795 10.173C4.17032 10.0506 4.32623 9.96725 4.49596 9.93349C4.6657 9.89973 4.84163 9.91706 5.00152 9.98328C5.1614 10.0495 5.29806 10.1617 5.3942 10.3056C5.49035 10.4494 5.54167 10.6186 5.54167 10.7917C5.54167 11.0237 5.44948 11.2463 5.28539 11.4104C5.12129 11.5745 4.89873 11.6667 4.66667 11.6667ZM10.2083 4.21168L6.70833 5.08668V3.37168L10.2083 2.49668V4.21168Z" fill="currentColor"/>
</svg>
